<?xml version="1.0" encoding="utf-8"?>
<svg viewBox="0 0 500 500" xmlns="http://www.w3.org/2000/svg">
  <g id="Layer_2-2" data-name="Layer 2" transform="matrix(0.6886550188064575, 0, 0, 0.6886550188064575, 67.39968109130854, 59.16681671142578)" style="">
    <path class="cls-1" d="M530.31,163.24l-82.88-82.88L367.07,0H80.36l-22.43,22.43L.61,79.75l-.61.61h115.85l35.51,35.48,48.64,48.64,78.36,78.39H121.61l-34.02,34.04,34.75,34.75h162.27l-81.12,81.14-48.64,48.64-35.24,35.22H2.56l58.52,58.52,19.04,19.04h290.93l77.53-77.56,31.8-31.8,48.64-48.64-115.85-115.85,117.14-117.14ZM213.15,80.36h136.98l82.9,82.88-68.5,68.5L213.15,80.36ZM431.74,396.23l-80.44,80.44h-134.42l35.24-35.22,112.41-112.43,67.21,67.21Z" style="fill: rgb(245, 245, 245); stroke-width: 0px;"/>
  </g>
</svg>