<svg version="1.2" xmlns="http://www.w3.org/2000/svg" viewBox="0 0 1548 304" width="1548" height="304">
	<title>kfintech-black-tagline-svg</title>
	<defs>
		<linearGradient id="g1" x1="292.9" y1="288.8" x2="349.7" y2="288.8" gradientUnits="userSpaceOnUse">
			<stop offset="0" stop-color="#0fd4d8"/>
			<stop offset=".288" stop-color="#09b0b9"/>
			<stop offset=".566" stop-color="#0495a1"/>
			<stop offset=".812" stop-color="#018593"/>
			<stop offset="1" stop-color="#007f8e"/>
		</linearGradient>
		<linearGradient id="g2" x1="159.3" y1="30" x2="99.3" y2="223.4" gradientUnits="userSpaceOnUse">
			<stop offset="0" stop-color="#139fce" stop-opacity=".9"/>
			<stop offset=".322" stop-color="#139ccb" stop-opacity=".93"/>
			<stop offset=".58" stop-color="#1293c1" stop-opacity=".96"/>
			<stop offset=".816" stop-color="#1083b0" stop-opacity=".98"/>
			<stop offset="1" stop-color="#0e719d" stop-opacity="1"/>
		</linearGradient>
		<linearGradient id="g3" x1="1.9" y1="280.6" x2="229.5" y2="215.7" gradientUnits="userSpaceOnUse">
			<stop offset="0" stop-color="#337fc9"/>
			<stop offset=".35" stop-color="#317cc6"/>
			<stop offset=".631" stop-color="#2d72bd"/>
			<stop offset=".888" stop-color="#2561af"/>
			<stop offset="1" stop-color="#2057a6"/>
		</linearGradient>
		<linearGradient id="g4" x1="327.2" y1="292.4" x2="162.6" y2="127.7" gradientUnits="userSpaceOnUse">
			<stop offset="0" stop-color="#0fd4d8"/>
			<stop offset=".256" stop-color="#0ed1d5"/>
			<stop offset=".462" stop-color="#0dc7cc"/>
			<stop offset=".65" stop-color="#0ab6be"/>
			<stop offset=".826" stop-color="#069ea9"/>
			<stop offset=".996" stop-color="#00808f"/>
			<stop offset="1" stop-color="#007f8e"/>
		</linearGradient>
		<linearGradient id="g5" x1="11.4" y1="276.8" x2="221.6" y2="218.4" gradientUnits="userSpaceOnUse">
			<stop offset="0" stop-color="#337fc9"/>
			<stop offset=".3" stop-color="#3079c4"/>
			<stop offset=".692" stop-color="#2869b6"/>
			<stop offset="1" stop-color="#2057a6"/>
		</linearGradient>
		<linearGradient id="g6" x1="155.7" y1="18.3" x2="101.9" y2="227.8" gradientUnits="userSpaceOnUse">
			<stop offset="0" stop-color="#139fce" stop-opacity=".9"/>
			<stop offset=".265" stop-color="#129ac8" stop-opacity=".93"/>
			<stop offset=".611" stop-color="#118ab8" stop-opacity=".96"/>
			<stop offset="1" stop-color="#0e719d" stop-opacity="1"/>
		</linearGradient>
		<linearGradient id="g7" x1="327.1" y1="286.7" x2="157.5" y2="125.2" gradientUnits="userSpaceOnUse">
			<stop offset="0" stop-color="#0fd4d8"/>
			<stop offset=".188" stop-color="#0eced3"/>
			<stop offset=".434" stop-color="#0bbec5"/>
			<stop offset=".712" stop-color="#06a3ad"/>
			<stop offset="1" stop-color="#007f8e"/>
		</linearGradient>
		<linearGradient id="g8" x1="142.6" y1="3.7" x2="176.9" y2="42.9" gradientUnits="userSpaceOnUse">
			<stop offset="0" stop-color="#0e719d" stop-opacity="1"/>
			<stop offset=".389" stop-color="#118ab8" stop-opacity=".96"/>
			<stop offset=".735" stop-color="#129ac8" stop-opacity=".93"/>
			<stop offset="1" stop-color="#139fce" stop-opacity=".9"/>
		</linearGradient>
		<linearGradient id="g9" x1=".3" y1="276.7" x2="19.2" y2="276.7" gradientUnits="userSpaceOnUse">
			<stop offset="0" stop-color="#337fc9"/>
			<stop offset=".308" stop-color="#2b6db9"/>
			<stop offset=".7" stop-color="#235dab"/>
			<stop offset="1" stop-color="#2057a6"/>
		</linearGradient>
	</defs>
	<style>
		.s0 { fill: #2057a6 } 
		.s1 { fill: url(#g1) } 
		.s2 { fill: url(#g2) } 
		.s3 { fill: url(#g3) } 
		.s4 { fill: url(#g4) } 
		.s5 { opacity: .3;fill: url(#g5) } 
		.s6 { opacity: .3;fill: url(#g6) } 
		.s7 { opacity: .3;fill: url(#g7) } 
		.s8 { fill: url(#g8) } 
		.s9 { fill: url(#g9) } 
		.s10 { fill: #1c2d47 } 
	</style>
	<path id="Layer" class="s0" d="m519.1 244.8h-37.1l-76.3-94.9v94.9h-28.2v-187.5h28.2v92.1l72.4-92.1h34.4l-73.7 90.8z"/>
	<path id="Layer" class="s0" d="m534.8 244.8v-187.5h114v26.1h-85.8v61h75.4v26h-75.4v74.4z"/>
	<path id="Layer" class="s0" d="m673.9 57.3h28.2v187.5h-28.2z"/>
	<path id="Layer" class="s0" d="m738.1 244.8v-191.4l130.2 131.7q-0.3-14.3-0.5-27.6-0.2-13.3-0.2-28.6v-71.6h27.5v192.3l-130-132.3q0.3 14.4 0.5 28.1 0.2 13.8 0.2 28.2v71.2z"/>
	<path id="Layer" class="s0" d="m970.5 244.8v-161.4h-54.2v-26.1h137v26.1h-54.4v161.4z"/>
	<path id="Layer" class="s0" d="m1074.5 244.8v-187.5h114.3v25.9h-85.6v53.2h71.2v25.5h-71.2v56.9h89v26z"/>
	<path id="Layer" class="s0" d="m1303.5 248.5q-21-0.1-39.3-7.6-18.3-7.5-31.9-20.6-13.7-13-21.6-30.8-7.8-17.7-7.8-38.5 0-20.7 7.8-38.4 7.9-17.8 21.6-30.8 13.6-13.1 31.9-20.5 18.4-7.4 39.5-7.4 20 0 35.5 5.4 15.5 5.5 25.3 12.1v32.3c-3.6-3.5-7.8-6.7-12.5-9.7q-7.1-4.4-15-7.6-8-3.2-16.6-4.9-8.5-1.7-16.9-1.7-15.5 0-28.6 5.5-13.1 5.5-22.5 15.1-9.5 9.7-14.8 22.7-5.3 12.9-5.3 28 0 15 5.3 28 5.3 12.9 14.8 22.6 9.4 9.7 22.5 15.2 13.1 5.4 28.6 5.4 17.3 0 33.6-6.6 16.2-6.6 27.4-17v32.3q-10.2 6.6-25.6 12c-10.3 3.6-22.1 5.5-35.4 5.5z"/>
	<path id="Layer" class="s0" d="m1395.9 244.8v-187.5h28.2v78.9h92.2v-78.9h28.2v187.5h-28.2v-82.6h-92.2v82.6z"/>
	<path id="Layer" class="s1" d="m292.9 289.4l53-4.3 3.2 3.5c1.4 1.6 0.2 4-1.8 3.9z"/>
	<path id="Layer" class="s2" d="m140.1 6.9l36.5 36.2-49.9 176.9-49.1 13.7z"/>
	<path id="Layer" class="s3" d="m7.9 301.8l11.4-51.7 182.1-51.1 39.6 39.1z"/>
	<path id="Layer" class="s4" d="m162.3 94.4l183.6 190.8-53 4.2-145.3-143.7z"/>
	<path id="Layer" class="s5" d="m19.3 250.1l182.1-51.1 39.6 39.1z"/>
	<path id="Layer" class="s6" d="m140.1 6.9l-13.4 213.1-49.1 13.7z"/>
	<path id="Layer" class="s7" d="m162.3 94.4l130.6 195-145.3-143.7z"/>
	<path id="Layer" class="s8" d="m176.6 43.1l-31.2-42.2c-1.2-1.5-3.7-1-4.1 0.9l-1.2 5.1z"/>
	<path id="Layer" class="s9" d="m19.3 250.1l-11.4 51.7-4.6 1.5c-1.8 0.6-3.5-1.2-2.9-3z"/>
	<path id="Layer" class="s10" d="m388.5 266.2v7.3h11.8v6.8h-11.8v8h13.3v7h-22.1v-36.2h22.1v7.1h-13.3z"/>
	<path id="Layer" class="s10" d="m445.2 295.3l-7.4-11.1-6.5 11.1h-10l11.6-18.4-11.8-17.8h10.2l7.3 11 6.4-11h10l-11.5 18.3 12 17.9z"/>
	<path id="Layer" fill-rule="evenodd" class="s10" d="m501.5 276.5q-1.5 2.6-4.5 4.3-3 1.5-7.4 1.5h-5.5v13h-8.8v-36.2h14.3q4.3 0 7.3 1.6 3 1.4 4.5 4.1 1.5 2.6 1.5 6 0 3.1-1.4 5.7zm-8.8-2.4q1.2-1.2 1.2-3.3 0-2.2-1.2-3.4-1.2-1.1-3.8-1.1h-4.8v9h4.8q2.5 0 3.8-1.2z"/>
	<path id="Layer" class="s10" d="m531.8 266.2v7.3h11.8v6.8h-11.8v8h13.3v7h-22.1v-36.2h22.1v7.1h-13.3z"/>
	<path id="Layer" fill-rule="evenodd" class="s10" d="m584.7 295.3l-7.5-13.6h-2.1v13.6h-8.8v-36.2h14.8q4.3 0 7.3 1.5 3 1.5 4.5 4.1 1.5 2.6 1.5 5.8 0 3.6-2 6.5-2 2.8-6 4l8.3 14.3zm-9.6-19.9h5.4q2.5 0 3.7-1.2 1.2-1.1 1.2-3.3 0-2.1-1.2-3.2-1.3-1.2-3.7-1.2h-5.4z"/>
	<path id="Layer" class="s10" d="m615.4 259.1h8.8v36.2h-8.8z"/>
	<path id="Layer" class="s10" d="m654.8 266.2v7.3h11.8v6.8h-11.8v8h13.4v7h-22.2v-36.2h22.2v7.1h-13.4z"/>
	<path id="Layer" class="s10" d="m721.7 295.3h-8.8l-14.7-22.3v22.3h-8.8v-36.2h8.8l14.7 22.4v-22.4h8.8z"/>
	<path id="Layer" class="s10" d="m744.4 267.6q2.3-4.2 6.5-6.5 4.1-2.4 9.4-2.4 6.4 0 11 3.4 4.6 3.4 6.1 9.3h-9.6q-1.1-2.3-3.1-3.5-2-1.2-4.5-1.2-4.1 0-6.6 2.9-2.5 2.8-2.5 7.6-0.1 4.7 2.5 7.5 2.5 2.9 6.6 2.9 2.5 0 4.5-1.2 2-1.2 3.1-3.5h9.6q-1.5 5.9-6.1 9.3-4.6 3.4-11 3.4-5.3 0-9.4-2.4-4.2-2.3-6.5-6.5-2.3-4.2-2.3-9.5 0-5.4 2.3-9.6z"/>
	<path id="Layer" class="s10" d="m807.1 266.2v7.3h11.8v6.8h-11.8v8h13.4v7h-22.2v-36.2h22.2v7.1h-13.4z"/>
	<path id="Layer" class="s10" d="m894.1 259.1v7.1h-9.6v29.1h-8.8v-29.1h-9.6v-7.1z"/>
	<path id="Layer" fill-rule="evenodd" class="s10" d="m932.4 295.3l-7.5-13.6h-2.1v13.6h-8.8v-36.2h14.8q4.3 0 7.3 1.5 3 1.5 4.5 4.1 1.5 2.6 1.5 5.8 0 3.6-2 6.5-2.1 2.8-6.1 4l8.4 14.3zm-9.7-19.9h5.5q2.4 0 3.6-1.2 1.2-1.1 1.2-3.3 0-2.1-1.2-3.2-1.2-1.2-3.6-1.2h-5.5z"/>
	<path id="Layer" fill-rule="evenodd" class="s10" d="m985.6 288.9h-13.6l-2.1 6.4h-9.3l13.1-36.2h10.2l13.1 36.2h-9.3zm-2.3-6.8l-4.4-13.2-4.5 13.2z"/>
	<path id="Layer" class="s10" d="m1048.8 295.3h-8.8l-14.7-22.3v22.3h-8.8v-36.2h8.8l14.7 22.4v-22.4h8.8z"/>
	<path id="Layer" class="s10" d="m1076.7 294.4q-3.2-1.3-5.1-3.8-1.8-2.6-1.9-6.1h9.4q0.2 2 1.3 3.1 1.2 1 3.1 1 2 0 3.1-0.9 1.2-0.9 1.2-2.5 0-1.3-0.9-2.2-0.9-0.9-2.2-1.4-1.4-0.6-3.8-1.3-3.5-1.1-5.7-2.2-2.2-1.1-3.8-3.2c-1.1-1.4-1.6-3.2-1.6-5.5q0-5.1 3.6-7.9 3.7-2.9 9.6-2.9 6 0 9.6 2.9c2.5 1.9 3.8 4.5 3.9 8h-9.5q-0.1-1.8-1.3-2.8-1.2-1-3-1-1.6 0-2.6 0.9-1 0.8-1 2.4 0 1.8 1.7 2.7 1.6 1 5.1 2.1 3.5 1.2 5.7 2.3 2.2 1.1 3.8 3.1 1.6 2.1 1.6 5.4 0 3-1.6 5.6-1.6 2.5-4.6 4c-2 1-4.3 1.5-7 1.5q-4 0-7.1-1.3z"/>
	<path id="Layer" class="s10" d="m1141.4 259.1v7.1h-14.7v7.6h11v6.9h-11v14.6h-8.8v-36.2z"/>
	<path id="Layer" fill-rule="evenodd" class="s10" d="m1169.2 293.3q-4.2-2.4-6.7-6.6-2.5-4.2-2.5-9.6 0-5.3 2.5-9.5 2.5-4.2 6.7-6.6 4.3-2.4 9.4-2.3 5.1 0 9.4 2.3 4.2 2.4 6.7 6.6 2.4 4.2 2.4 9.5 0 5.4-2.4 9.6-2.5 4.3-6.8 6.6-4.2 2.4-9.3 2.4c-3.4 0-6.5-0.8-9.4-2.4zm16.3-8.6q2.6-2.8 2.6-7.6 0-4.8-2.6-7.6-2.6-2.9-6.9-2.9-4.4 0-7 2.9-2.6 2.8-2.6 7.6 0 4.8 2.6 7.7 2.6 2.8 7 2.8 4.3 0 6.9-2.9z"/>
	<path id="Layer" fill-rule="evenodd" class="s10" d="m1235.9 295.3l-7.5-13.6h-2.1v13.6h-8.8v-36.2h14.8q4.3 0 7.3 1.5 3 1.5 4.5 4.1 1.5 2.6 1.5 5.8 0 3.6-2 6.5-2.1 2.8-6 4l8.3 14.3zm-9.6-19.9h5.4q2.4 0 3.6-1.2 1.3-1.1 1.2-3.3 0-2.1-1.2-3.2-1.2-1.2-3.6-1.2h-5.4z"/>
	<path id="Layer" class="s10" d="m1307.5 259.1v36.2h-8.8v-21.7l-8.1 21.7h-7.1l-8.1-21.7v21.7h-8.9v-36.2h10.5l10.1 25.1 10.1-25.1z"/>
	<path id="Layer" fill-rule="evenodd" class="s10" d="m1351.8 288.9h-13.5l-2.2 6.4h-9.2l13.1-36.2h10.2l13.1 36.2h-9.3zm-2.3-6.8l-4.5-13.2-4.4 13.2z"/>
	<path id="Layer" class="s10" d="m1408.8 259.1v7.1h-9.6v29.1h-8.8v-29.1h-9.6v-7.1z"/>
	<path id="Layer" class="s10" d="m1428.7 259.1h8.8v36.2h-8.8z"/>
	<path id="Layer" fill-rule="evenodd" class="s10" d="m1467.1 293.3q-4.3-2.4-6.7-6.6-2.5-4.2-2.5-9.6 0-5.3 2.5-9.5 2.5-4.2 6.7-6.6 4.2-2.4 9.4-2.3 5.1 0 9.3 2.3 4.3 2.4 6.7 6.6 2.5 4.2 2.5 9.5 0 5.4-2.5 9.6-2.5 4.3-6.7 6.6-4.2 2.4-9.3 2.4c-3.4 0-6.6-0.8-9.4-2.4zm16.3-8.6q2.6-2.8 2.6-7.6 0-4.8-2.6-7.6-2.6-2.9-7-2.9-4.3 0-6.9 2.9-2.6 2.8-2.6 7.6 0 4.8 2.6 7.7 2.6 2.8 6.9 2.8 4.4 0 7-2.9z"/>
	<path id="Layer" class="s10" d="m1547.7 295.3h-8.8l-14.8-22.3v22.3h-8.8v-36.2h8.8l14.8 22.4v-22.4h8.8z"/>
</svg>